<?xml version="1.0" encoding="utf-8"?>
<!-- Generator: Adobe Illustrator 22.0.1, SVG Export Plug-In . SVG Version: 6.00 Build 0)  -->
<svg version="1.1" id="Layer_1" xmlns="http://www.w3.org/2000/svg" xmlns:xlink="http://www.w3.org/1999/xlink" x="0px" y="0px"
	 viewBox="0 0 100 32" style="enable-background:new 0 0 100 32;" xml:space="preserve">
<style type="text/css">
	.st0{fill:#EC0080;}
	.st1{fill:#8BC53F;}
</style>
<path class="st0" d="M84.289,1.944h-1.053l-6.415,10.133h5.489v2.154h1.979v-2.154h1.356v-2.074h-1.356V1.944z M82.31,10.003
	l-2.027,0.016l2.027-3.447V10.003z"/>
<path class="st0" d="M92.778,7.051v2.074h2.49v2.346c-0.373,0.277-0.772,0.481-1.197,0.614c-0.426,0.133-0.862,0.199-1.308,0.199
	c-0.585,0-1.133-0.109-1.644-0.327c-0.511-0.218-0.957-0.518-1.34-0.902c-0.383-0.383-0.684-0.83-0.902-1.34
	c-0.218-0.511-0.327-1.053-0.327-1.628c0-0.575,0.109-1.117,0.327-1.628c0.218-0.511,0.519-0.957,0.902-1.34
	c0.383-0.383,0.83-0.683,1.34-0.902C91.629,4,92.177,3.891,92.762,3.891c0.543,0,1.066,0.101,1.572,0.303
	c0.505,0.202,0.955,0.489,1.348,0.862l1.484-1.484c-0.606-0.575-1.285-1.016-2.035-1.324c-0.75-0.308-1.54-0.463-2.37-0.463
	c-0.872,0-1.691,0.165-2.457,0.495c-0.766,0.33-1.436,0.78-2.011,1.348c-0.574,0.569-1.027,1.237-1.356,2.003
	c-0.33,0.766-0.495,1.585-0.495,2.457c0,0.872,0.165,1.691,0.495,2.457c0.33,0.766,0.782,1.434,1.356,2.003
	c0.574,0.569,1.245,1.019,2.011,1.348c0.766,0.33,1.585,0.495,2.457,0.495c0.83,0,1.62-0.154,2.37-0.463
	c0.75-0.309,1.428-0.75,2.035-1.324l0.032-0.096V7.051H92.778z"/>
<polygon class="st1" points="5.691,4.864 14.849,4.864 5.126,18.078 5.126,19.692 20.017,19.692 20.017,16.858 10.01,16.858 
	19.495,3.589 19.508,3.585 19.508,3.57 19.512,3.565 19.508,3.566 19.508,1.936 5.691,1.936 "/>
<path class="st1" d="M44.184,5.21h5.122c1.88-0.02,3.439,0.804,3.295,3.357v11.125h3.33V8.137c0.026-4.523-2.987-6.198-6.247-6.201
	h-8.991v17.755h3.491V5.21z"/>
<path class="st1" d="M57.297,10.855c0,5.085,4.594,9.232,10.227,9.232c2.125,0,4.101-0.59,5.739-1.598l0.026-0.015v-7.251h-3.355
	v5.489c-0.673,0.197-1.391,0.305-2.135,0.305c-3.824,0-6.943-2.815-6.943-6.268s3.119-6.268,6.943-6.268
	c1.561,0,3.004,0.469,4.166,1.259l1.324-2.502c-1.643-1.018-3.629-1.614-5.766-1.614C61.891,1.623,57.297,5.77,57.297,10.855z"/>
<path class="st1" d="M39.124,10.873c0-5.094-4.156-9.25-9.25-9.25c-5.094,0-9.25,4.156-9.25,9.25c0,4.838,3.749,8.827,8.489,9.216
	v-3.261c-2.958-0.375-5.247-2.895-5.247-5.955c0-3.318,2.69-6.008,6.008-6.008s6.008,2.69,6.008,6.008
	c0,3.06-2.289,5.58-5.247,5.955v3.261C35.375,19.7,39.124,15.711,39.124,10.873z"/>
<path class="st0" d="M40.693,30.768h1.028l0.413-0.941h2.186l0.412,0.941h1.028l-2.534-5.791L40.693,30.768z M42.546,28.886
	l0.68-1.564l0.681,1.564H42.546z"/>
<polygon class="st0" points="52.948,28.611 49.596,24.977 49.596,30.768 50.537,30.768 50.537,27.366 53.889,31 53.889,25.194 
	52.948,25.194 "/>
<polygon class="st0" points="55.336,30.768 58.811,30.768 58.811,29.827 56.277,29.827 56.277,28.452 58.522,28.452 58.522,27.511 
	56.277,27.511 56.277,26.135 58.811,26.135 58.811,25.194 55.336,25.194 "/>
<polygon class="st0" points="64.334,28.64 63.791,27.388 64.747,25.194 63.719,25.194 63.277,26.215 62.829,25.194 61.801,25.194 
	62.763,27.388 62.213,28.64 60.708,25.194 59.68,25.194 62.213,30.985 63.277,28.561 64.334,30.985 66.868,25.194 65.84,25.194 "/>
<path class="st0" d="M74.298,26.009c-0.253-0.253-0.549-0.452-0.887-0.597c-0.338-0.145-0.7-0.217-1.086-0.217h-1.621v5.574h1.621
	c0.386,0,0.748-0.072,1.086-0.217c0.338-0.145,0.633-0.344,0.887-0.597c0.253-0.253,0.452-0.549,0.597-0.887
	c0.145-0.338,0.217-0.7,0.217-1.086s-0.072-0.748-0.217-1.086C74.751,26.558,74.551,26.262,74.298,26.009z M74.027,28.702
	c-0.096,0.224-0.228,0.42-0.394,0.586c-0.166,0.167-0.362,0.298-0.586,0.394c-0.224,0.097-0.464,0.145-0.72,0.145h-0.68v-3.692h0.68
	c0.256,0,0.496,0.048,0.72,0.145c0.224,0.096,0.42,0.228,0.586,0.394c0.167,0.167,0.298,0.362,0.394,0.586
	c0.097,0.224,0.145,0.464,0.145,0.72S74.123,28.477,74.027,28.702z"/>
<path class="st0" d="M79.452,28.17c0.147-0.101,0.274-0.221,0.38-0.358c0.106-0.138,0.188-0.291,0.246-0.46
	c0.058-0.169,0.087-0.345,0.087-0.528c0-0.222-0.042-0.432-0.127-0.63c-0.084-0.198-0.202-0.372-0.351-0.521
	c-0.15-0.15-0.323-0.267-0.521-0.351c-0.198-0.084-0.408-0.127-0.63-0.127h-2.193v5.574h0.941v-2.316h0.673l1.158,2.316h1.086
	l-1.238-2.374C79.142,28.346,79.305,28.271,79.452,28.17z M78.536,27.511h-1.252v-1.375h1.252c0.092,0,0.18,0.018,0.264,0.054
	c0.084,0.036,0.158,0.086,0.221,0.148c0.063,0.063,0.112,0.136,0.148,0.221c0.036,0.085,0.054,0.173,0.054,0.264
	c0,0.097-0.018,0.186-0.054,0.268c-0.036,0.082-0.086,0.154-0.148,0.217c-0.063,0.063-0.137,0.112-0.221,0.148
	C78.716,27.493,78.628,27.511,78.536,27.511z"/>
<polygon class="st0" points="81.432,30.768 84.906,30.768 84.906,29.827 82.373,29.827 82.373,28.452 84.617,28.452 84.617,27.511 
	82.373,27.511 82.373,26.135 84.906,26.135 84.906,25.194 81.432,25.194 "/>
<path class="st0" d="M85.775,30.768h1.028l0.413-0.941h2.186l0.413,0.941h1.028l-2.534-5.791L85.775,30.768z M87.628,28.886
	l0.68-1.564l0.681,1.564H87.628z"/>
<polygon class="st0" points="91.892,24.977 91.892,30.768 92.833,30.768 92.833,27.851 94.545,30.073 96.257,27.851 96.257,30.768 
	97.198,30.768 97.198,24.977 94.545,28.604 "/>
</svg>
